<mxfile host="app.diagrams.net" modified="2024-05-29T12:50:03.973Z" agent="Mozilla/5.0 (Windows NT 10.0; Win64; x64) AppleWebKit/537.36 (KHTML, like Gecko) Chrome/121.0.0.0 Safari/537.36" etag="pX4_n9C56EAQEvfnwyUY" version="24.4.9" type="device">
  <diagram name="Página-1" id="AKXChQljFlu2qR3KcP9l">
    <mxGraphModel dx="1889" dy="579" grid="1" gridSize="10" guides="1" tooltips="1" connect="1" arrows="1" fold="1" page="1" pageScale="1" pageWidth="827" pageHeight="1169" math="0" shadow="0">
      <root>
        <mxCell id="0" />
        <mxCell id="1" parent="0" />
        <mxCell id="d4iBQFHmA6hFhwpncuJ7-1" value="&lt;font style=&quot;font-size: 25px;&quot;&gt;Apagar&amp;nbsp; Cliente&lt;/font&gt;" style="swimlane;horizontal=0;whiteSpace=wrap;html=1;startSize=60;fillColor=#f8cecc;strokeColor=#b85450;" parent="1" vertex="1">
          <mxGeometry x="-10" y="430" width="680" height="570" as="geometry" />
        </mxCell>
        <mxCell id="d4iBQFHmA6hFhwpncuJ7-34" value="" style="edgeStyle=orthogonalEdgeStyle;rounded=0;orthogonalLoop=1;jettySize=auto;html=1;" parent="d4iBQFHmA6hFhwpncuJ7-1" source="d4iBQFHmA6hFhwpncuJ7-32" target="d4iBQFHmA6hFhwpncuJ7-33" edge="1">
          <mxGeometry relative="1" as="geometry" />
        </mxCell>
        <mxCell id="d4iBQFHmA6hFhwpncuJ7-32" value="inicio" style="ellipse;whiteSpace=wrap;html=1;" parent="d4iBQFHmA6hFhwpncuJ7-1" vertex="1">
          <mxGeometry x="200" y="20" width="120" height="80" as="geometry" />
        </mxCell>
        <mxCell id="d4iBQFHmA6hFhwpncuJ7-36" value="" style="edgeStyle=orthogonalEdgeStyle;rounded=0;orthogonalLoop=1;jettySize=auto;html=1;" parent="d4iBQFHmA6hFhwpncuJ7-1" source="d4iBQFHmA6hFhwpncuJ7-33" target="d4iBQFHmA6hFhwpncuJ7-35" edge="1">
          <mxGeometry relative="1" as="geometry" />
        </mxCell>
        <mxCell id="d4iBQFHmA6hFhwpncuJ7-33" value="dentro da tela cliente clicar em &quot;Excluir&quot;" style="whiteSpace=wrap;html=1;" parent="d4iBQFHmA6hFhwpncuJ7-1" vertex="1">
          <mxGeometry x="200" y="124" width="120" height="60" as="geometry" />
        </mxCell>
        <mxCell id="d4iBQFHmA6hFhwpncuJ7-38" value="" style="edgeStyle=orthogonalEdgeStyle;rounded=0;orthogonalLoop=1;jettySize=auto;html=1;" parent="d4iBQFHmA6hFhwpncuJ7-1" source="d4iBQFHmA6hFhwpncuJ7-35" target="d4iBQFHmA6hFhwpncuJ7-37" edge="1">
          <mxGeometry relative="1" as="geometry" />
        </mxCell>
        <mxCell id="d4iBQFHmA6hFhwpncuJ7-35" value="aparecer na tela espaço para digitar motivo" style="whiteSpace=wrap;html=1;" parent="d4iBQFHmA6hFhwpncuJ7-1" vertex="1">
          <mxGeometry x="200" y="210" width="120" height="60" as="geometry" />
        </mxCell>
        <mxCell id="d4iBQFHmA6hFhwpncuJ7-40" value="" style="edgeStyle=orthogonalEdgeStyle;rounded=0;orthogonalLoop=1;jettySize=auto;html=1;" parent="d4iBQFHmA6hFhwpncuJ7-1" source="d4iBQFHmA6hFhwpncuJ7-37" target="d4iBQFHmA6hFhwpncuJ7-39" edge="1">
          <mxGeometry relative="1" as="geometry" />
        </mxCell>
        <mxCell id="d4iBQFHmA6hFhwpncuJ7-37" value="digitar o motivo" style="whiteSpace=wrap;html=1;" parent="d4iBQFHmA6hFhwpncuJ7-1" vertex="1">
          <mxGeometry x="200" y="290" width="120" height="60" as="geometry" />
        </mxCell>
        <mxCell id="d4iBQFHmA6hFhwpncuJ7-41" style="edgeStyle=orthogonalEdgeStyle;rounded=0;orthogonalLoop=1;jettySize=auto;html=1;entryX=1;entryY=0.5;entryDx=0;entryDy=0;exitX=1;exitY=0.5;exitDx=0;exitDy=0;" parent="d4iBQFHmA6hFhwpncuJ7-1" source="d4iBQFHmA6hFhwpncuJ7-39" target="d4iBQFHmA6hFhwpncuJ7-37" edge="1">
          <mxGeometry relative="1" as="geometry">
            <mxPoint x="310" y="410" as="sourcePoint" />
            <Array as="points">
              <mxPoint x="380" y="420" />
              <mxPoint x="380" y="320" />
            </Array>
          </mxGeometry>
        </mxCell>
        <mxCell id="d4iBQFHmA6hFhwpncuJ7-45" value="" style="edgeStyle=orthogonalEdgeStyle;rounded=0;orthogonalLoop=1;jettySize=auto;html=1;" parent="d4iBQFHmA6hFhwpncuJ7-1" source="d4iBQFHmA6hFhwpncuJ7-39" target="d4iBQFHmA6hFhwpncuJ7-44" edge="1">
          <mxGeometry relative="1" as="geometry" />
        </mxCell>
        <mxCell id="d4iBQFHmA6hFhwpncuJ7-39" value="espaço preenchido" style="rhombus;whiteSpace=wrap;html=1;" parent="d4iBQFHmA6hFhwpncuJ7-1" vertex="1">
          <mxGeometry x="220" y="380" width="80" height="80" as="geometry" />
        </mxCell>
        <mxCell id="d4iBQFHmA6hFhwpncuJ7-42" value="não" style="text;html=1;align=center;verticalAlign=middle;whiteSpace=wrap;rounded=0;" parent="d4iBQFHmA6hFhwpncuJ7-1" vertex="1">
          <mxGeometry x="310" y="370" width="60" height="30" as="geometry" />
        </mxCell>
        <mxCell id="d4iBQFHmA6hFhwpncuJ7-43" value="sim" style="text;html=1;align=center;verticalAlign=middle;whiteSpace=wrap;rounded=0;" parent="d4iBQFHmA6hFhwpncuJ7-1" vertex="1">
          <mxGeometry x="270" y="450" width="60" height="30" as="geometry" />
        </mxCell>
        <mxCell id="d4iBQFHmA6hFhwpncuJ7-47" style="edgeStyle=orthogonalEdgeStyle;rounded=0;orthogonalLoop=1;jettySize=auto;html=1;entryX=0;entryY=0.5;entryDx=0;entryDy=0;" parent="d4iBQFHmA6hFhwpncuJ7-1" source="d4iBQFHmA6hFhwpncuJ7-44" target="d4iBQFHmA6hFhwpncuJ7-46" edge="1">
          <mxGeometry relative="1" as="geometry" />
        </mxCell>
        <mxCell id="d4iBQFHmA6hFhwpncuJ7-44" value="Excluir&amp;nbsp;" style="whiteSpace=wrap;html=1;" parent="d4iBQFHmA6hFhwpncuJ7-1" vertex="1">
          <mxGeometry x="200" y="480" width="120" height="60" as="geometry" />
        </mxCell>
        <mxCell id="d4iBQFHmA6hFhwpncuJ7-46" value="fim" style="ellipse;whiteSpace=wrap;html=1;" parent="d4iBQFHmA6hFhwpncuJ7-1" vertex="1">
          <mxGeometry x="380" y="460" width="120" height="80" as="geometry" />
        </mxCell>
        <mxCell id="d4iBQFHmA6hFhwpncuJ7-2" value="&lt;font style=&quot;font-size: 25px;&quot;&gt;Atualizar Produto&lt;/font&gt;" style="swimlane;horizontal=0;whiteSpace=wrap;html=1;startSize=60;fillColor=#dae8fc;strokeColor=#6c8ebf;" parent="1" vertex="1">
          <mxGeometry x="-10" y="1040" width="680" height="570" as="geometry" />
        </mxCell>
        <mxCell id="d4iBQFHmA6hFhwpncuJ7-97" style="edgeStyle=orthogonalEdgeStyle;rounded=0;orthogonalLoop=1;jettySize=auto;html=1;entryX=0.5;entryY=0;entryDx=0;entryDy=0;" parent="d4iBQFHmA6hFhwpncuJ7-2" source="d4iBQFHmA6hFhwpncuJ7-98" target="d4iBQFHmA6hFhwpncuJ7-100" edge="1">
          <mxGeometry relative="1" as="geometry" />
        </mxCell>
        <mxCell id="d4iBQFHmA6hFhwpncuJ7-98" value="inicio" style="ellipse;whiteSpace=wrap;html=1;" parent="d4iBQFHmA6hFhwpncuJ7-2" vertex="1">
          <mxGeometry x="220" y="15" width="120" height="80" as="geometry" />
        </mxCell>
        <mxCell id="d4iBQFHmA6hFhwpncuJ7-99" style="edgeStyle=orthogonalEdgeStyle;rounded=0;orthogonalLoop=1;jettySize=auto;html=1;entryX=0.5;entryY=0;entryDx=0;entryDy=0;" parent="d4iBQFHmA6hFhwpncuJ7-2" source="d4iBQFHmA6hFhwpncuJ7-100" target="d4iBQFHmA6hFhwpncuJ7-102" edge="1">
          <mxGeometry relative="1" as="geometry" />
        </mxCell>
        <mxCell id="d4iBQFHmA6hFhwpncuJ7-100" value="clicar em &quot;P rodutos&quot;" style="whiteSpace=wrap;html=1;" parent="d4iBQFHmA6hFhwpncuJ7-2" vertex="1">
          <mxGeometry x="220" y="119" width="120" height="60" as="geometry" />
        </mxCell>
        <mxCell id="d4iBQFHmA6hFhwpncuJ7-101" style="edgeStyle=orthogonalEdgeStyle;rounded=0;orthogonalLoop=1;jettySize=auto;html=1;entryX=0.5;entryY=0;entryDx=0;entryDy=0;" parent="d4iBQFHmA6hFhwpncuJ7-2" source="d4iBQFHmA6hFhwpncuJ7-102" target="d4iBQFHmA6hFhwpncuJ7-104" edge="1">
          <mxGeometry relative="1" as="geometry" />
        </mxCell>
        <mxCell id="d4iBQFHmA6hFhwpncuJ7-102" value="escolher produto" style="whiteSpace=wrap;html=1;" parent="d4iBQFHmA6hFhwpncuJ7-2" vertex="1">
          <mxGeometry x="220" y="205" width="120" height="60" as="geometry" />
        </mxCell>
        <mxCell id="d4iBQFHmA6hFhwpncuJ7-117" value="" style="edgeStyle=orthogonalEdgeStyle;rounded=0;orthogonalLoop=1;jettySize=auto;html=1;" parent="d4iBQFHmA6hFhwpncuJ7-2" source="d4iBQFHmA6hFhwpncuJ7-104" target="d4iBQFHmA6hFhwpncuJ7-116" edge="1">
          <mxGeometry relative="1" as="geometry" />
        </mxCell>
        <mxCell id="d4iBQFHmA6hFhwpncuJ7-104" value="editar produto" style="whiteSpace=wrap;html=1;" parent="d4iBQFHmA6hFhwpncuJ7-2" vertex="1">
          <mxGeometry x="220" y="295" width="120" height="60" as="geometry" />
        </mxCell>
        <mxCell id="d4iBQFHmA6hFhwpncuJ7-108" value="sim" style="text;html=1;align=center;verticalAlign=middle;whiteSpace=wrap;rounded=0;" parent="d4iBQFHmA6hFhwpncuJ7-2" vertex="1">
          <mxGeometry x="220" y="455" width="60" height="30" as="geometry" />
        </mxCell>
        <mxCell id="d4iBQFHmA6hFhwpncuJ7-109" style="edgeStyle=orthogonalEdgeStyle;rounded=0;orthogonalLoop=1;jettySize=auto;html=1;entryX=0;entryY=0.5;entryDx=0;entryDy=0;" parent="d4iBQFHmA6hFhwpncuJ7-2" source="d4iBQFHmA6hFhwpncuJ7-110" target="d4iBQFHmA6hFhwpncuJ7-111" edge="1">
          <mxGeometry relative="1" as="geometry" />
        </mxCell>
        <mxCell id="d4iBQFHmA6hFhwpncuJ7-110" value="atualizar&amp;nbsp; produto" style="whiteSpace=wrap;html=1;" parent="d4iBQFHmA6hFhwpncuJ7-2" vertex="1">
          <mxGeometry x="220" y="485" width="120" height="60" as="geometry" />
        </mxCell>
        <mxCell id="d4iBQFHmA6hFhwpncuJ7-111" value="fim" style="ellipse;whiteSpace=wrap;html=1;" parent="d4iBQFHmA6hFhwpncuJ7-2" vertex="1">
          <mxGeometry x="396" y="475" width="120" height="80" as="geometry" />
        </mxCell>
        <mxCell id="d4iBQFHmA6hFhwpncuJ7-112" value="não" style="text;html=1;align=center;verticalAlign=middle;whiteSpace=wrap;rounded=0;" parent="d4iBQFHmA6hFhwpncuJ7-2" vertex="1">
          <mxGeometry x="320" y="380" width="60" height="30" as="geometry" />
        </mxCell>
        <mxCell id="d4iBQFHmA6hFhwpncuJ7-119" style="edgeStyle=orthogonalEdgeStyle;rounded=0;orthogonalLoop=1;jettySize=auto;html=1;entryX=0.5;entryY=0;entryDx=0;entryDy=0;" parent="d4iBQFHmA6hFhwpncuJ7-2" source="d4iBQFHmA6hFhwpncuJ7-116" target="d4iBQFHmA6hFhwpncuJ7-110" edge="1">
          <mxGeometry relative="1" as="geometry" />
        </mxCell>
        <mxCell id="d4iBQFHmA6hFhwpncuJ7-120" style="edgeStyle=orthogonalEdgeStyle;rounded=0;orthogonalLoop=1;jettySize=auto;html=1;entryX=1;entryY=0.5;entryDx=0;entryDy=0;exitX=1;exitY=0.5;exitDx=0;exitDy=0;" parent="d4iBQFHmA6hFhwpncuJ7-2" source="d4iBQFHmA6hFhwpncuJ7-116" target="d4iBQFHmA6hFhwpncuJ7-102" edge="1">
          <mxGeometry relative="1" as="geometry">
            <mxPoint x="370" y="414.95" as="sourcePoint" />
            <mxPoint x="390" y="229.95" as="targetPoint" />
            <Array as="points">
              <mxPoint x="390" y="420" />
              <mxPoint x="390" y="235" />
            </Array>
          </mxGeometry>
        </mxCell>
        <mxCell id="d4iBQFHmA6hFhwpncuJ7-116" value="&lt;font style=&quot;font-size: 9px;&quot;&gt;&lt;b&gt;as informações editadas são válidas?&lt;/b&gt;&lt;/font&gt;" style="rhombus;whiteSpace=wrap;html=1;" parent="d4iBQFHmA6hFhwpncuJ7-2" vertex="1">
          <mxGeometry x="240" y="380" width="80" height="80" as="geometry" />
        </mxCell>
        <mxCell id="d4iBQFHmA6hFhwpncuJ7-3" value="&lt;font style=&quot;font-size: 25px;&quot;&gt;Conclusão de Pedido&lt;/font&gt;" style="swimlane;horizontal=0;whiteSpace=wrap;html=1;startSize=60;fillColor=#ffe6cc;strokeColor=#d79b00;" parent="1" vertex="1">
          <mxGeometry x="710" y="1040" width="680" height="570" as="geometry" />
        </mxCell>
        <mxCell id="d4iBQFHmA6hFhwpncuJ7-175" style="edgeStyle=orthogonalEdgeStyle;rounded=0;orthogonalLoop=1;jettySize=auto;html=1;entryX=0.5;entryY=0;entryDx=0;entryDy=0;" parent="d4iBQFHmA6hFhwpncuJ7-3" target="d4iBQFHmA6hFhwpncuJ7-177" edge="1">
          <mxGeometry relative="1" as="geometry">
            <mxPoint x="240" y="85" as="sourcePoint" />
          </mxGeometry>
        </mxCell>
        <mxCell id="d4iBQFHmA6hFhwpncuJ7-176" style="edgeStyle=orthogonalEdgeStyle;rounded=0;orthogonalLoop=1;jettySize=auto;html=1;entryX=0.5;entryY=0;entryDx=0;entryDy=0;" parent="d4iBQFHmA6hFhwpncuJ7-3" source="d4iBQFHmA6hFhwpncuJ7-177" target="d4iBQFHmA6hFhwpncuJ7-179" edge="1">
          <mxGeometry relative="1" as="geometry" />
        </mxCell>
        <mxCell id="d4iBQFHmA6hFhwpncuJ7-177" value="clicou na tela de &quot;checklist&quot;" style="whiteSpace=wrap;html=1;" parent="d4iBQFHmA6hFhwpncuJ7-3" vertex="1">
          <mxGeometry x="180" y="109" width="120" height="60" as="geometry" />
        </mxCell>
        <mxCell id="d4iBQFHmA6hFhwpncuJ7-194" style="edgeStyle=orthogonalEdgeStyle;rounded=0;orthogonalLoop=1;jettySize=auto;html=1;entryX=0.5;entryY=0;entryDx=0;entryDy=0;" parent="d4iBQFHmA6hFhwpncuJ7-3" source="d4iBQFHmA6hFhwpncuJ7-179" target="d4iBQFHmA6hFhwpncuJ7-184" edge="1">
          <mxGeometry relative="1" as="geometry" />
        </mxCell>
        <mxCell id="d4iBQFHmA6hFhwpncuJ7-179" value="pesquisou o pedido" style="whiteSpace=wrap;html=1;" parent="d4iBQFHmA6hFhwpncuJ7-3" vertex="1">
          <mxGeometry x="180" y="195" width="120" height="60" as="geometry" />
        </mxCell>
        <mxCell id="d4iBQFHmA6hFhwpncuJ7-182" style="edgeStyle=orthogonalEdgeStyle;rounded=0;orthogonalLoop=1;jettySize=auto;html=1;entryX=0.5;entryY=0;entryDx=0;entryDy=0;" parent="d4iBQFHmA6hFhwpncuJ7-3" source="d4iBQFHmA6hFhwpncuJ7-184" target="d4iBQFHmA6hFhwpncuJ7-187" edge="1">
          <mxGeometry relative="1" as="geometry" />
        </mxCell>
        <mxCell id="d4iBQFHmA6hFhwpncuJ7-192" style="edgeStyle=orthogonalEdgeStyle;rounded=0;orthogonalLoop=1;jettySize=auto;html=1;entryX=0;entryY=0.5;entryDx=0;entryDy=0;" parent="d4iBQFHmA6hFhwpncuJ7-3" source="d4iBQFHmA6hFhwpncuJ7-184" target="d4iBQFHmA6hFhwpncuJ7-191" edge="1">
          <mxGeometry relative="1" as="geometry" />
        </mxCell>
        <mxCell id="d4iBQFHmA6hFhwpncuJ7-184" value="&lt;span style=&quot;font-size: 8px;&quot;&gt;&lt;b&gt;o pedido existe?&lt;/b&gt;&lt;/span&gt;" style="rhombus;whiteSpace=wrap;html=1;" parent="d4iBQFHmA6hFhwpncuJ7-3" vertex="1">
          <mxGeometry x="200" y="270" width="80" height="80" as="geometry" />
        </mxCell>
        <mxCell id="d4iBQFHmA6hFhwpncuJ7-185" value="sim" style="text;html=1;align=center;verticalAlign=middle;whiteSpace=wrap;rounded=0;" parent="d4iBQFHmA6hFhwpncuJ7-3" vertex="1">
          <mxGeometry x="180" y="335" width="60" height="30" as="geometry" />
        </mxCell>
        <mxCell id="d4iBQFHmA6hFhwpncuJ7-196" style="edgeStyle=orthogonalEdgeStyle;rounded=0;orthogonalLoop=1;jettySize=auto;html=1;entryX=0.5;entryY=0;entryDx=0;entryDy=0;" parent="d4iBQFHmA6hFhwpncuJ7-3" source="d4iBQFHmA6hFhwpncuJ7-187" target="d4iBQFHmA6hFhwpncuJ7-195" edge="1">
          <mxGeometry relative="1" as="geometry" />
        </mxCell>
        <mxCell id="d4iBQFHmA6hFhwpncuJ7-187" value="fazer um &quot;check&quot; no produto" style="whiteSpace=wrap;html=1;" parent="d4iBQFHmA6hFhwpncuJ7-3" vertex="1">
          <mxGeometry x="180" y="365" width="120" height="60" as="geometry" />
        </mxCell>
        <mxCell id="d4iBQFHmA6hFhwpncuJ7-188" value="fim" style="ellipse;whiteSpace=wrap;html=1;" parent="d4iBQFHmA6hFhwpncuJ7-3" vertex="1">
          <mxGeometry x="356" y="465" width="120" height="80" as="geometry" />
        </mxCell>
        <mxCell id="d4iBQFHmA6hFhwpncuJ7-189" value="não" style="text;html=1;align=center;verticalAlign=middle;whiteSpace=wrap;rounded=0;" parent="d4iBQFHmA6hFhwpncuJ7-3" vertex="1">
          <mxGeometry x="277" y="270" width="60" height="30" as="geometry" />
        </mxCell>
        <mxCell id="d4iBQFHmA6hFhwpncuJ7-190" value="inicio" style="ellipse;whiteSpace=wrap;html=1;" parent="d4iBQFHmA6hFhwpncuJ7-3" vertex="1">
          <mxGeometry x="180" y="10" width="120" height="80" as="geometry" />
        </mxCell>
        <mxCell id="d4iBQFHmA6hFhwpncuJ7-191" value="solicitar cadastro do cliente / produto" style="rounded=0;whiteSpace=wrap;html=1;" parent="d4iBQFHmA6hFhwpncuJ7-3" vertex="1">
          <mxGeometry x="350" y="280" width="120" height="60" as="geometry" />
        </mxCell>
        <mxCell id="d4iBQFHmA6hFhwpncuJ7-197" style="edgeStyle=orthogonalEdgeStyle;rounded=0;orthogonalLoop=1;jettySize=auto;html=1;entryX=0;entryY=0.5;entryDx=0;entryDy=0;" parent="d4iBQFHmA6hFhwpncuJ7-3" source="d4iBQFHmA6hFhwpncuJ7-195" target="d4iBQFHmA6hFhwpncuJ7-188" edge="1">
          <mxGeometry relative="1" as="geometry" />
        </mxCell>
        <mxCell id="d4iBQFHmA6hFhwpncuJ7-195" value="pedido concluído" style="whiteSpace=wrap;html=1;" parent="d4iBQFHmA6hFhwpncuJ7-3" vertex="1">
          <mxGeometry x="180" y="475" width="120" height="60" as="geometry" />
        </mxCell>
        <mxCell id="d4iBQFHmA6hFhwpncuJ7-4" value="&lt;font style=&quot;font-size: 25px;&quot;&gt;Analise de visibilidade de produto&lt;/font&gt;" style="swimlane;horizontal=0;whiteSpace=wrap;html=1;startSize=60;fillColor=#ffe6cc;strokeColor=#d79b00;" parent="1" vertex="1">
          <mxGeometry x="710" y="430" width="680" height="570" as="geometry" />
        </mxCell>
        <mxCell id="d4iBQFHmA6hFhwpncuJ7-50" value="" style="edgeStyle=orthogonalEdgeStyle;rounded=0;orthogonalLoop=1;jettySize=auto;html=1;" parent="d4iBQFHmA6hFhwpncuJ7-4" source="d4iBQFHmA6hFhwpncuJ7-48" target="d4iBQFHmA6hFhwpncuJ7-49" edge="1">
          <mxGeometry relative="1" as="geometry" />
        </mxCell>
        <mxCell id="d4iBQFHmA6hFhwpncuJ7-48" value="inicio" style="ellipse;whiteSpace=wrap;html=1;" parent="d4iBQFHmA6hFhwpncuJ7-4" vertex="1">
          <mxGeometry x="100" y="20" width="120" height="80" as="geometry" />
        </mxCell>
        <mxCell id="d4iBQFHmA6hFhwpncuJ7-54" value="" style="edgeStyle=orthogonalEdgeStyle;rounded=0;orthogonalLoop=1;jettySize=auto;html=1;" parent="d4iBQFHmA6hFhwpncuJ7-4" source="d4iBQFHmA6hFhwpncuJ7-49" target="d4iBQFHmA6hFhwpncuJ7-53" edge="1">
          <mxGeometry relative="1" as="geometry" />
        </mxCell>
        <mxCell id="d4iBQFHmA6hFhwpncuJ7-49" value="após cadastro do lote / produção verificar insumos" style="whiteSpace=wrap;html=1;" parent="d4iBQFHmA6hFhwpncuJ7-4" vertex="1">
          <mxGeometry x="100" y="124" width="120" height="60" as="geometry" />
        </mxCell>
        <mxCell id="d4iBQFHmA6hFhwpncuJ7-68" value="" style="edgeStyle=orthogonalEdgeStyle;rounded=0;orthogonalLoop=1;jettySize=auto;html=1;" parent="d4iBQFHmA6hFhwpncuJ7-4" source="d4iBQFHmA6hFhwpncuJ7-53" target="d4iBQFHmA6hFhwpncuJ7-67" edge="1">
          <mxGeometry relative="1" as="geometry" />
        </mxCell>
        <mxCell id="d4iBQFHmA6hFhwpncuJ7-53" value="quantidade de materiais correto" style="rhombus;whiteSpace=wrap;html=1;" parent="d4iBQFHmA6hFhwpncuJ7-4" vertex="1">
          <mxGeometry x="95" y="220" width="130" height="80" as="geometry" />
        </mxCell>
        <mxCell id="d4iBQFHmA6hFhwpncuJ7-55" value="não" style="text;html=1;align=center;verticalAlign=middle;whiteSpace=wrap;rounded=0;" parent="d4iBQFHmA6hFhwpncuJ7-4" vertex="1">
          <mxGeometry x="200" y="220" width="60" height="30" as="geometry" />
        </mxCell>
        <mxCell id="d4iBQFHmA6hFhwpncuJ7-56" value="sim" style="text;html=1;align=center;verticalAlign=middle;whiteSpace=wrap;rounded=0;" parent="d4iBQFHmA6hFhwpncuJ7-4" vertex="1">
          <mxGeometry x="90" y="290" width="60" height="30" as="geometry" />
        </mxCell>
        <mxCell id="d4iBQFHmA6hFhwpncuJ7-57" value="fim" style="ellipse;whiteSpace=wrap;html=1;" parent="d4iBQFHmA6hFhwpncuJ7-4" vertex="1">
          <mxGeometry x="550" y="230" width="120" height="80" as="geometry" />
        </mxCell>
        <mxCell id="d4iBQFHmA6hFhwpncuJ7-65" value="" style="edgeStyle=orthogonalEdgeStyle;rounded=0;orthogonalLoop=1;jettySize=auto;html=1;" parent="d4iBQFHmA6hFhwpncuJ7-4" source="d4iBQFHmA6hFhwpncuJ7-63" target="d4iBQFHmA6hFhwpncuJ7-64" edge="1">
          <mxGeometry relative="1" as="geometry">
            <Array as="points">
              <mxPoint x="430" y="260" />
            </Array>
          </mxGeometry>
        </mxCell>
        <mxCell id="d4iBQFHmA6hFhwpncuJ7-63" value="indicador de falta de materiais aparece" style="rounded=0;whiteSpace=wrap;html=1;" parent="d4iBQFHmA6hFhwpncuJ7-4" vertex="1">
          <mxGeometry x="260" y="230" width="120" height="60" as="geometry" />
        </mxCell>
        <mxCell id="d4iBQFHmA6hFhwpncuJ7-62" style="edgeStyle=orthogonalEdgeStyle;rounded=0;orthogonalLoop=1;jettySize=auto;html=1;" parent="d4iBQFHmA6hFhwpncuJ7-4" source="d4iBQFHmA6hFhwpncuJ7-53" target="d4iBQFHmA6hFhwpncuJ7-63" edge="1">
          <mxGeometry relative="1" as="geometry">
            <mxPoint x="290" y="260" as="targetPoint" />
          </mxGeometry>
        </mxCell>
        <mxCell id="d4iBQFHmA6hFhwpncuJ7-66" style="edgeStyle=orthogonalEdgeStyle;rounded=0;orthogonalLoop=1;jettySize=auto;html=1;entryX=0.5;entryY=0;entryDx=0;entryDy=0;" parent="d4iBQFHmA6hFhwpncuJ7-4" source="d4iBQFHmA6hFhwpncuJ7-64" target="d4iBQFHmA6hFhwpncuJ7-57" edge="1">
          <mxGeometry relative="1" as="geometry">
            <Array as="points">
              <mxPoint x="610" y="150" />
            </Array>
          </mxGeometry>
        </mxCell>
        <mxCell id="d4iBQFHmA6hFhwpncuJ7-64" value="verificar cliente" style="whiteSpace=wrap;html=1;rounded=0;" parent="d4iBQFHmA6hFhwpncuJ7-4" vertex="1">
          <mxGeometry x="400" y="110" width="120" height="60" as="geometry" />
        </mxCell>
        <mxCell id="d4iBQFHmA6hFhwpncuJ7-70" value="" style="edgeStyle=orthogonalEdgeStyle;rounded=0;orthogonalLoop=1;jettySize=auto;html=1;" parent="d4iBQFHmA6hFhwpncuJ7-4" source="d4iBQFHmA6hFhwpncuJ7-67" target="d4iBQFHmA6hFhwpncuJ7-69" edge="1">
          <mxGeometry relative="1" as="geometry" />
        </mxCell>
        <mxCell id="d4iBQFHmA6hFhwpncuJ7-67" value="seguir com viabilidade" style="whiteSpace=wrap;html=1;" parent="d4iBQFHmA6hFhwpncuJ7-4" vertex="1">
          <mxGeometry x="100" y="320" width="120" height="60" as="geometry" />
        </mxCell>
        <mxCell id="d4iBQFHmA6hFhwpncuJ7-72" value="" style="edgeStyle=orthogonalEdgeStyle;rounded=0;orthogonalLoop=1;jettySize=auto;html=1;" parent="d4iBQFHmA6hFhwpncuJ7-4" source="d4iBQFHmA6hFhwpncuJ7-69" target="d4iBQFHmA6hFhwpncuJ7-71" edge="1">
          <mxGeometry relative="1" as="geometry" />
        </mxCell>
        <mxCell id="d4iBQFHmA6hFhwpncuJ7-69" value="contagem de peças" style="whiteSpace=wrap;html=1;" parent="d4iBQFHmA6hFhwpncuJ7-4" vertex="1">
          <mxGeometry x="100" y="400" width="120" height="60" as="geometry" />
        </mxCell>
        <mxCell id="d4iBQFHmA6hFhwpncuJ7-74" value="" style="edgeStyle=orthogonalEdgeStyle;rounded=0;orthogonalLoop=1;jettySize=auto;html=1;" parent="d4iBQFHmA6hFhwpncuJ7-4" source="d4iBQFHmA6hFhwpncuJ7-71" target="d4iBQFHmA6hFhwpncuJ7-73" edge="1">
          <mxGeometry relative="1" as="geometry" />
        </mxCell>
        <mxCell id="d4iBQFHmA6hFhwpncuJ7-76" style="edgeStyle=orthogonalEdgeStyle;rounded=0;orthogonalLoop=1;jettySize=auto;html=1;exitX=1;exitY=0;exitDx=0;exitDy=0;entryX=0.5;entryY=1;entryDx=0;entryDy=0;" parent="d4iBQFHmA6hFhwpncuJ7-4" source="d4iBQFHmA6hFhwpncuJ7-71" target="d4iBQFHmA6hFhwpncuJ7-79" edge="1">
          <mxGeometry relative="1" as="geometry">
            <mxPoint x="280" y="420" as="targetPoint" />
            <Array as="points">
              <mxPoint x="290" y="500" />
              <mxPoint x="290" y="450" />
              <mxPoint x="320" y="450" />
            </Array>
          </mxGeometry>
        </mxCell>
        <mxCell id="d4iBQFHmA6hFhwpncuJ7-71" value="quantidade correta" style="rhombus;whiteSpace=wrap;html=1;" parent="d4iBQFHmA6hFhwpncuJ7-4" vertex="1">
          <mxGeometry x="120" y="480" width="80" height="80" as="geometry" />
        </mxCell>
        <mxCell id="d4iBQFHmA6hFhwpncuJ7-75" style="edgeStyle=orthogonalEdgeStyle;rounded=0;orthogonalLoop=1;jettySize=auto;html=1;entryX=0;entryY=0.5;entryDx=0;entryDy=0;" parent="d4iBQFHmA6hFhwpncuJ7-4" source="d4iBQFHmA6hFhwpncuJ7-73" target="d4iBQFHmA6hFhwpncuJ7-57" edge="1">
          <mxGeometry relative="1" as="geometry" />
        </mxCell>
        <mxCell id="d4iBQFHmA6hFhwpncuJ7-73" value="seguir a produção" style="whiteSpace=wrap;html=1;" parent="d4iBQFHmA6hFhwpncuJ7-4" vertex="1">
          <mxGeometry x="330" y="490" width="120" height="60" as="geometry" />
        </mxCell>
        <mxCell id="d4iBQFHmA6hFhwpncuJ7-77" value="não" style="text;html=1;align=center;verticalAlign=middle;whiteSpace=wrap;rounded=0;" parent="d4iBQFHmA6hFhwpncuJ7-4" vertex="1">
          <mxGeometry x="220" y="460" width="60" height="30" as="geometry" />
        </mxCell>
        <mxCell id="d4iBQFHmA6hFhwpncuJ7-78" value="sim" style="text;html=1;align=center;verticalAlign=middle;whiteSpace=wrap;rounded=0;" parent="d4iBQFHmA6hFhwpncuJ7-4" vertex="1">
          <mxGeometry x="210" y="530" width="60" height="30" as="geometry" />
        </mxCell>
        <mxCell id="d4iBQFHmA6hFhwpncuJ7-80" style="edgeStyle=orthogonalEdgeStyle;rounded=0;orthogonalLoop=1;jettySize=auto;html=1;entryX=0.5;entryY=1;entryDx=0;entryDy=0;" parent="d4iBQFHmA6hFhwpncuJ7-4" source="d4iBQFHmA6hFhwpncuJ7-79" target="d4iBQFHmA6hFhwpncuJ7-64" edge="1">
          <mxGeometry relative="1" as="geometry" />
        </mxCell>
        <mxCell id="d4iBQFHmA6hFhwpncuJ7-79" value="indicador de fatia de peças" style="rounded=0;whiteSpace=wrap;html=1;" parent="d4iBQFHmA6hFhwpncuJ7-4" vertex="1">
          <mxGeometry x="260" y="350" width="120" height="60" as="geometry" />
        </mxCell>
        <mxCell id="d4iBQFHmA6hFhwpncuJ7-5" value="&lt;font style=&quot;font-size: 25px;&quot;&gt;Cadastrar Produto&lt;/font&gt;" style="swimlane;horizontal=0;whiteSpace=wrap;html=1;startSize=60;fillColor=#d5e8d4;strokeColor=#82b366;" parent="1" vertex="1">
          <mxGeometry x="-10" y="1660" width="680" height="570" as="geometry" />
        </mxCell>
        <mxCell id="d4iBQFHmA6hFhwpncuJ7-142" style="edgeStyle=orthogonalEdgeStyle;rounded=0;orthogonalLoop=1;jettySize=auto;html=1;entryX=0.5;entryY=0;entryDx=0;entryDy=0;" parent="d4iBQFHmA6hFhwpncuJ7-5" source="d4iBQFHmA6hFhwpncuJ7-143" target="d4iBQFHmA6hFhwpncuJ7-145" edge="1">
          <mxGeometry relative="1" as="geometry" />
        </mxCell>
        <mxCell id="d4iBQFHmA6hFhwpncuJ7-143" value="inicio" style="ellipse;whiteSpace=wrap;html=1;" parent="d4iBQFHmA6hFhwpncuJ7-5" vertex="1">
          <mxGeometry x="152" y="15" width="120" height="80" as="geometry" />
        </mxCell>
        <mxCell id="d4iBQFHmA6hFhwpncuJ7-144" style="edgeStyle=orthogonalEdgeStyle;rounded=0;orthogonalLoop=1;jettySize=auto;html=1;entryX=0.5;entryY=0;entryDx=0;entryDy=0;" parent="d4iBQFHmA6hFhwpncuJ7-5" source="d4iBQFHmA6hFhwpncuJ7-145" target="d4iBQFHmA6hFhwpncuJ7-147" edge="1">
          <mxGeometry relative="1" as="geometry" />
        </mxCell>
        <mxCell id="d4iBQFHmA6hFhwpncuJ7-145" value="na tela inicial ir para produto" style="whiteSpace=wrap;html=1;" parent="d4iBQFHmA6hFhwpncuJ7-5" vertex="1">
          <mxGeometry x="152" y="119" width="120" height="60" as="geometry" />
        </mxCell>
        <mxCell id="d4iBQFHmA6hFhwpncuJ7-146" style="edgeStyle=orthogonalEdgeStyle;rounded=0;orthogonalLoop=1;jettySize=auto;html=1;entryX=0.5;entryY=0;entryDx=0;entryDy=0;" parent="d4iBQFHmA6hFhwpncuJ7-5" source="d4iBQFHmA6hFhwpncuJ7-147" target="d4iBQFHmA6hFhwpncuJ7-149" edge="1">
          <mxGeometry relative="1" as="geometry" />
        </mxCell>
        <mxCell id="d4iBQFHmA6hFhwpncuJ7-147" value="opção &quot;cadastrar &quot;" style="whiteSpace=wrap;html=1;" parent="d4iBQFHmA6hFhwpncuJ7-5" vertex="1">
          <mxGeometry x="152" y="205" width="120" height="60" as="geometry" />
        </mxCell>
        <mxCell id="d4iBQFHmA6hFhwpncuJ7-148" style="edgeStyle=orthogonalEdgeStyle;rounded=0;orthogonalLoop=1;jettySize=auto;html=1;" parent="d4iBQFHmA6hFhwpncuJ7-5" source="d4iBQFHmA6hFhwpncuJ7-149" edge="1">
          <mxGeometry relative="1" as="geometry">
            <mxPoint x="212" y="370" as="targetPoint" />
          </mxGeometry>
        </mxCell>
        <mxCell id="d4iBQFHmA6hFhwpncuJ7-149" value="digitar informações dos produtos" style="whiteSpace=wrap;html=1;" parent="d4iBQFHmA6hFhwpncuJ7-5" vertex="1">
          <mxGeometry x="152" y="295" width="120" height="60" as="geometry" />
        </mxCell>
        <mxCell id="d4iBQFHmA6hFhwpncuJ7-150" style="edgeStyle=orthogonalEdgeStyle;rounded=0;orthogonalLoop=1;jettySize=auto;html=1;entryX=0.5;entryY=0;entryDx=0;entryDy=0;" parent="d4iBQFHmA6hFhwpncuJ7-5" source="d4iBQFHmA6hFhwpncuJ7-152" target="d4iBQFHmA6hFhwpncuJ7-155" edge="1">
          <mxGeometry relative="1" as="geometry" />
        </mxCell>
        <mxCell id="d4iBQFHmA6hFhwpncuJ7-151" style="edgeStyle=orthogonalEdgeStyle;rounded=0;orthogonalLoop=1;jettySize=auto;html=1;entryX=1;entryY=0.5;entryDx=0;entryDy=0;exitX=1;exitY=0.5;exitDx=0;exitDy=0;" parent="d4iBQFHmA6hFhwpncuJ7-5" source="d4iBQFHmA6hFhwpncuJ7-152" target="d4iBQFHmA6hFhwpncuJ7-149" edge="1">
          <mxGeometry relative="1" as="geometry">
            <Array as="points">
              <mxPoint x="323" y="415" />
              <mxPoint x="323" y="325" />
            </Array>
          </mxGeometry>
        </mxCell>
        <mxCell id="d4iBQFHmA6hFhwpncuJ7-152" value="&lt;font style=&quot;font-size: 8px;&quot;&gt;&lt;b&gt;as informações são validas?&lt;/b&gt;&lt;/font&gt;" style="rhombus;whiteSpace=wrap;html=1;" parent="d4iBQFHmA6hFhwpncuJ7-5" vertex="1">
          <mxGeometry x="172" y="375" width="80" height="80" as="geometry" />
        </mxCell>
        <mxCell id="d4iBQFHmA6hFhwpncuJ7-153" value="sim" style="text;html=1;align=center;verticalAlign=middle;whiteSpace=wrap;rounded=0;" parent="d4iBQFHmA6hFhwpncuJ7-5" vertex="1">
          <mxGeometry x="152" y="445" width="60" height="30" as="geometry" />
        </mxCell>
        <mxCell id="d4iBQFHmA6hFhwpncuJ7-154" style="edgeStyle=orthogonalEdgeStyle;rounded=0;orthogonalLoop=1;jettySize=auto;html=1;entryX=0;entryY=0.5;entryDx=0;entryDy=0;" parent="d4iBQFHmA6hFhwpncuJ7-5" source="d4iBQFHmA6hFhwpncuJ7-155" target="d4iBQFHmA6hFhwpncuJ7-156" edge="1">
          <mxGeometry relative="1" as="geometry" />
        </mxCell>
        <mxCell id="d4iBQFHmA6hFhwpncuJ7-155" value="clicar em salvar&amp;nbsp;" style="whiteSpace=wrap;html=1;" parent="d4iBQFHmA6hFhwpncuJ7-5" vertex="1">
          <mxGeometry x="152" y="485" width="120" height="60" as="geometry" />
        </mxCell>
        <mxCell id="d4iBQFHmA6hFhwpncuJ7-156" value="fim" style="ellipse;whiteSpace=wrap;html=1;" parent="d4iBQFHmA6hFhwpncuJ7-5" vertex="1">
          <mxGeometry x="328" y="475" width="120" height="80" as="geometry" />
        </mxCell>
        <mxCell id="d4iBQFHmA6hFhwpncuJ7-157" value="não" style="text;html=1;align=center;verticalAlign=middle;whiteSpace=wrap;rounded=0;" parent="d4iBQFHmA6hFhwpncuJ7-5" vertex="1">
          <mxGeometry x="249" y="375" width="60" height="30" as="geometry" />
        </mxCell>
        <mxCell id="d4iBQFHmA6hFhwpncuJ7-6" value="&lt;font style=&quot;font-size: 25px;&quot;&gt;Verificar tempo de produção e média diária&lt;/font&gt;" style="swimlane;horizontal=0;whiteSpace=wrap;html=1;startSize=60;fillColor=#ffe6cc;strokeColor=#d79b00;" parent="1" vertex="1">
          <mxGeometry x="710" y="1660" width="680" height="570" as="geometry" />
        </mxCell>
        <mxCell id="d4iBQFHmA6hFhwpncuJ7-158" style="edgeStyle=orthogonalEdgeStyle;rounded=0;orthogonalLoop=1;jettySize=auto;html=1;entryX=0.5;entryY=0;entryDx=0;entryDy=0;" parent="d4iBQFHmA6hFhwpncuJ7-6" source="d4iBQFHmA6hFhwpncuJ7-159" target="d4iBQFHmA6hFhwpncuJ7-161" edge="1">
          <mxGeometry relative="1" as="geometry" />
        </mxCell>
        <mxCell id="d4iBQFHmA6hFhwpncuJ7-159" value="inicio" style="ellipse;whiteSpace=wrap;html=1;" parent="d4iBQFHmA6hFhwpncuJ7-6" vertex="1">
          <mxGeometry x="142" y="15" width="120" height="80" as="geometry" />
        </mxCell>
        <mxCell id="d4iBQFHmA6hFhwpncuJ7-160" style="edgeStyle=orthogonalEdgeStyle;rounded=0;orthogonalLoop=1;jettySize=auto;html=1;entryX=0.5;entryY=0;entryDx=0;entryDy=0;" parent="d4iBQFHmA6hFhwpncuJ7-6" source="d4iBQFHmA6hFhwpncuJ7-161" target="d4iBQFHmA6hFhwpncuJ7-163" edge="1">
          <mxGeometry relative="1" as="geometry" />
        </mxCell>
        <mxCell id="d4iBQFHmA6hFhwpncuJ7-161" value="ir para a tela &quot;tempo de produção&quot;" style="whiteSpace=wrap;html=1;" parent="d4iBQFHmA6hFhwpncuJ7-6" vertex="1">
          <mxGeometry x="142" y="119" width="120" height="60" as="geometry" />
        </mxCell>
        <mxCell id="d4iBQFHmA6hFhwpncuJ7-236" style="edgeStyle=orthogonalEdgeStyle;rounded=0;orthogonalLoop=1;jettySize=auto;html=1;entryX=0.5;entryY=0;entryDx=0;entryDy=0;" parent="d4iBQFHmA6hFhwpncuJ7-6" source="d4iBQFHmA6hFhwpncuJ7-163" target="d4iBQFHmA6hFhwpncuJ7-168" edge="1">
          <mxGeometry relative="1" as="geometry" />
        </mxCell>
        <mxCell id="d4iBQFHmA6hFhwpncuJ7-163" value="pesquisar na barra de pesquisa &quot;cliente&quot;" style="whiteSpace=wrap;html=1;" parent="d4iBQFHmA6hFhwpncuJ7-6" vertex="1">
          <mxGeometry x="142" y="205" width="120" height="60" as="geometry" />
        </mxCell>
        <mxCell id="d4iBQFHmA6hFhwpncuJ7-235" style="edgeStyle=orthogonalEdgeStyle;rounded=0;orthogonalLoop=1;jettySize=auto;html=1;entryX=0.5;entryY=0;entryDx=0;entryDy=0;" parent="d4iBQFHmA6hFhwpncuJ7-6" source="d4iBQFHmA6hFhwpncuJ7-168" target="d4iBQFHmA6hFhwpncuJ7-231" edge="1">
          <mxGeometry relative="1" as="geometry" />
        </mxCell>
        <mxCell id="d4iBQFHmA6hFhwpncuJ7-251" style="edgeStyle=orthogonalEdgeStyle;rounded=0;orthogonalLoop=1;jettySize=auto;html=1;entryX=0.5;entryY=1;entryDx=0;entryDy=0;" parent="d4iBQFHmA6hFhwpncuJ7-6" source="d4iBQFHmA6hFhwpncuJ7-168" target="d4iBQFHmA6hFhwpncuJ7-250" edge="1">
          <mxGeometry relative="1" as="geometry">
            <Array as="points">
              <mxPoint x="310" y="320" />
              <mxPoint x="310" y="240" />
              <mxPoint x="350" y="240" />
            </Array>
          </mxGeometry>
        </mxCell>
        <mxCell id="d4iBQFHmA6hFhwpncuJ7-168" value="&lt;font style=&quot;font-size: 8px;&quot;&gt;&lt;b&gt;foi encontrado&lt;/b&gt;&lt;/font&gt;" style="rhombus;whiteSpace=wrap;html=1;" parent="d4iBQFHmA6hFhwpncuJ7-6" vertex="1">
          <mxGeometry x="162" y="280" width="80" height="80" as="geometry" />
        </mxCell>
        <mxCell id="d4iBQFHmA6hFhwpncuJ7-169" value="sim" style="text;html=1;align=center;verticalAlign=middle;whiteSpace=wrap;rounded=0;" parent="d4iBQFHmA6hFhwpncuJ7-6" vertex="1">
          <mxGeometry x="130" y="350" width="60" height="30" as="geometry" />
        </mxCell>
        <mxCell id="d4iBQFHmA6hFhwpncuJ7-172" value="não" style="text;html=1;align=center;verticalAlign=middle;whiteSpace=wrap;rounded=0;" parent="d4iBQFHmA6hFhwpncuJ7-6" vertex="1">
          <mxGeometry x="230" y="280" width="60" height="30" as="geometry" />
        </mxCell>
        <mxCell id="d4iBQFHmA6hFhwpncuJ7-174" value="fim" style="ellipse;whiteSpace=wrap;html=1;" parent="d4iBQFHmA6hFhwpncuJ7-6" vertex="1">
          <mxGeometry x="540" y="475" width="120" height="80" as="geometry" />
        </mxCell>
        <mxCell id="d4iBQFHmA6hFhwpncuJ7-233" value="" style="edgeStyle=orthogonalEdgeStyle;rounded=0;orthogonalLoop=1;jettySize=auto;html=1;" parent="d4iBQFHmA6hFhwpncuJ7-6" source="d4iBQFHmA6hFhwpncuJ7-231" target="d4iBQFHmA6hFhwpncuJ7-232" edge="1">
          <mxGeometry relative="1" as="geometry" />
        </mxCell>
        <mxCell id="d4iBQFHmA6hFhwpncuJ7-231" value="digitar a média diária" style="rounded=0;whiteSpace=wrap;html=1;" parent="d4iBQFHmA6hFhwpncuJ7-6" vertex="1">
          <mxGeometry x="142" y="380" width="120" height="60" as="geometry" />
        </mxCell>
        <mxCell id="d4iBQFHmA6hFhwpncuJ7-245" style="edgeStyle=orthogonalEdgeStyle;rounded=0;orthogonalLoop=1;jettySize=auto;html=1;entryX=0;entryY=0.5;entryDx=0;entryDy=0;" parent="d4iBQFHmA6hFhwpncuJ7-6" source="d4iBQFHmA6hFhwpncuJ7-232" target="d4iBQFHmA6hFhwpncuJ7-242" edge="1">
          <mxGeometry relative="1" as="geometry" />
        </mxCell>
        <mxCell id="d4iBQFHmA6hFhwpncuJ7-252" style="edgeStyle=orthogonalEdgeStyle;rounded=0;orthogonalLoop=1;jettySize=auto;html=1;exitX=1;exitY=0;exitDx=0;exitDy=0;entryX=0.5;entryY=1;entryDx=0;entryDy=0;" parent="d4iBQFHmA6hFhwpncuJ7-6" source="d4iBQFHmA6hFhwpncuJ7-232" target="d4iBQFHmA6hFhwpncuJ7-237" edge="1">
          <mxGeometry relative="1" as="geometry">
            <Array as="points">
              <mxPoint x="222" y="460" />
              <mxPoint x="380" y="460" />
            </Array>
          </mxGeometry>
        </mxCell>
        <mxCell id="d4iBQFHmA6hFhwpncuJ7-232" value="bateu a meta?" style="rhombus;whiteSpace=wrap;html=1;rounded=0;" parent="d4iBQFHmA6hFhwpncuJ7-6" vertex="1">
          <mxGeometry x="162" y="460" width="80" height="80" as="geometry" />
        </mxCell>
        <mxCell id="d4iBQFHmA6hFhwpncuJ7-240" value="" style="edgeStyle=orthogonalEdgeStyle;rounded=0;orthogonalLoop=1;jettySize=auto;html=1;" parent="d4iBQFHmA6hFhwpncuJ7-6" source="d4iBQFHmA6hFhwpncuJ7-237" target="d4iBQFHmA6hFhwpncuJ7-239" edge="1">
          <mxGeometry relative="1" as="geometry" />
        </mxCell>
        <mxCell id="d4iBQFHmA6hFhwpncuJ7-237" value="mostra quantidade na tela &quot;quantidade de produtos faltantes&quot;" style="whiteSpace=wrap;html=1;" parent="d4iBQFHmA6hFhwpncuJ7-6" vertex="1">
          <mxGeometry x="320" y="330" width="120" height="60" as="geometry" />
        </mxCell>
        <mxCell id="d4iBQFHmA6hFhwpncuJ7-241" style="edgeStyle=orthogonalEdgeStyle;rounded=0;orthogonalLoop=1;jettySize=auto;html=1;entryX=0.5;entryY=0;entryDx=0;entryDy=0;" parent="d4iBQFHmA6hFhwpncuJ7-6" source="d4iBQFHmA6hFhwpncuJ7-239" target="d4iBQFHmA6hFhwpncuJ7-174" edge="1">
          <mxGeometry relative="1" as="geometry" />
        </mxCell>
        <mxCell id="d4iBQFHmA6hFhwpncuJ7-239" value="na próxima seção indicar c/ aviso na tela inicial a falta de demanda" style="whiteSpace=wrap;html=1;" parent="d4iBQFHmA6hFhwpncuJ7-6" vertex="1">
          <mxGeometry x="502" y="290" width="120" height="60" as="geometry" />
        </mxCell>
        <mxCell id="d4iBQFHmA6hFhwpncuJ7-244" value="" style="edgeStyle=orthogonalEdgeStyle;rounded=0;orthogonalLoop=1;jettySize=auto;html=1;" parent="d4iBQFHmA6hFhwpncuJ7-6" source="d4iBQFHmA6hFhwpncuJ7-242" target="d4iBQFHmA6hFhwpncuJ7-243" edge="1">
          <mxGeometry relative="1" as="geometry" />
        </mxCell>
        <mxCell id="d4iBQFHmA6hFhwpncuJ7-242" value="mostrar na tela &quot;meta batida&quot;" style="rounded=0;whiteSpace=wrap;html=1;" parent="d4iBQFHmA6hFhwpncuJ7-6" vertex="1">
          <mxGeometry x="262" y="470" width="120" height="60" as="geometry" />
        </mxCell>
        <mxCell id="d4iBQFHmA6hFhwpncuJ7-243" value="salvar progresso" style="whiteSpace=wrap;html=1;rounded=0;" parent="d4iBQFHmA6hFhwpncuJ7-6" vertex="1">
          <mxGeometry x="411" y="470" width="120" height="60" as="geometry" />
        </mxCell>
        <mxCell id="d4iBQFHmA6hFhwpncuJ7-250" value="ir para atela cadastrar cliente" style="rounded=0;whiteSpace=wrap;html=1;" parent="d4iBQFHmA6hFhwpncuJ7-6" vertex="1">
          <mxGeometry x="290" y="130" width="120" height="60" as="geometry" />
        </mxCell>
        <mxCell id="d4iBQFHmA6hFhwpncuJ7-253" value="sim" style="text;html=1;align=center;verticalAlign=middle;whiteSpace=wrap;rounded=0;" parent="d4iBQFHmA6hFhwpncuJ7-6" vertex="1">
          <mxGeometry x="220" y="525" width="60" height="30" as="geometry" />
        </mxCell>
        <mxCell id="d4iBQFHmA6hFhwpncuJ7-254" value="não" style="text;html=1;align=center;verticalAlign=middle;whiteSpace=wrap;rounded=0;" parent="d4iBQFHmA6hFhwpncuJ7-6" vertex="1">
          <mxGeometry x="280" y="430" width="60" height="30" as="geometry" />
        </mxCell>
        <mxCell id="d4iBQFHmA6hFhwpncuJ7-7" value="&lt;i&gt;&lt;font style=&quot;font-size: 25px;&quot;&gt;Apagar produto&lt;/font&gt;&lt;/i&gt;" style="swimlane;horizontal=0;whiteSpace=wrap;html=1;startSize=60;fillColor=#f8cecc;strokeColor=#b85450;" parent="1" vertex="1">
          <mxGeometry x="-730" y="430" width="680" height="570" as="geometry" />
        </mxCell>
        <mxCell id="d4iBQFHmA6hFhwpncuJ7-13" value="" style="edgeStyle=orthogonalEdgeStyle;rounded=0;orthogonalLoop=1;jettySize=auto;html=1;" parent="d4iBQFHmA6hFhwpncuJ7-7" source="d4iBQFHmA6hFhwpncuJ7-11" target="d4iBQFHmA6hFhwpncuJ7-12" edge="1">
          <mxGeometry relative="1" as="geometry" />
        </mxCell>
        <mxCell id="d4iBQFHmA6hFhwpncuJ7-11" value="inicio" style="ellipse;whiteSpace=wrap;html=1;" parent="d4iBQFHmA6hFhwpncuJ7-7" vertex="1">
          <mxGeometry x="277" y="20" width="120" height="80" as="geometry" />
        </mxCell>
        <mxCell id="d4iBQFHmA6hFhwpncuJ7-15" value="" style="edgeStyle=orthogonalEdgeStyle;rounded=0;orthogonalLoop=1;jettySize=auto;html=1;" parent="d4iBQFHmA6hFhwpncuJ7-7" source="d4iBQFHmA6hFhwpncuJ7-12" target="d4iBQFHmA6hFhwpncuJ7-14" edge="1">
          <mxGeometry relative="1" as="geometry" />
        </mxCell>
        <mxCell id="d4iBQFHmA6hFhwpncuJ7-12" value="dentro da tela produto clicar em &quot;Excluir&quot;&amp;nbsp;" style="whiteSpace=wrap;html=1;" parent="d4iBQFHmA6hFhwpncuJ7-7" vertex="1">
          <mxGeometry x="277" y="124" width="120" height="60" as="geometry" />
        </mxCell>
        <mxCell id="d4iBQFHmA6hFhwpncuJ7-17" value="" style="edgeStyle=orthogonalEdgeStyle;rounded=0;orthogonalLoop=1;jettySize=auto;html=1;" parent="d4iBQFHmA6hFhwpncuJ7-7" source="d4iBQFHmA6hFhwpncuJ7-14" target="d4iBQFHmA6hFhwpncuJ7-16" edge="1">
          <mxGeometry relative="1" as="geometry" />
        </mxCell>
        <mxCell id="d4iBQFHmA6hFhwpncuJ7-14" value="aparecer na tela espaço para digitar motivo" style="whiteSpace=wrap;html=1;" parent="d4iBQFHmA6hFhwpncuJ7-7" vertex="1">
          <mxGeometry x="277" y="210" width="120" height="60" as="geometry" />
        </mxCell>
        <mxCell id="d4iBQFHmA6hFhwpncuJ7-21" value="" style="edgeStyle=orthogonalEdgeStyle;rounded=0;orthogonalLoop=1;jettySize=auto;html=1;" parent="d4iBQFHmA6hFhwpncuJ7-7" source="d4iBQFHmA6hFhwpncuJ7-16" target="d4iBQFHmA6hFhwpncuJ7-20" edge="1">
          <mxGeometry relative="1" as="geometry" />
        </mxCell>
        <mxCell id="d4iBQFHmA6hFhwpncuJ7-16" value="digitar motivo" style="whiteSpace=wrap;html=1;" parent="d4iBQFHmA6hFhwpncuJ7-7" vertex="1">
          <mxGeometry x="277" y="300" width="120" height="60" as="geometry" />
        </mxCell>
        <mxCell id="d4iBQFHmA6hFhwpncuJ7-24" style="edgeStyle=orthogonalEdgeStyle;rounded=0;orthogonalLoop=1;jettySize=auto;html=1;entryX=1;entryY=0.5;entryDx=0;entryDy=0;" parent="d4iBQFHmA6hFhwpncuJ7-7" source="d4iBQFHmA6hFhwpncuJ7-20" target="d4iBQFHmA6hFhwpncuJ7-16" edge="1">
          <mxGeometry relative="1" as="geometry">
            <mxPoint x="447" y="320" as="targetPoint" />
            <Array as="points">
              <mxPoint x="477" y="420" />
              <mxPoint x="477" y="330" />
            </Array>
          </mxGeometry>
        </mxCell>
        <mxCell id="d4iBQFHmA6hFhwpncuJ7-28" value="" style="edgeStyle=orthogonalEdgeStyle;rounded=0;orthogonalLoop=1;jettySize=auto;html=1;" parent="d4iBQFHmA6hFhwpncuJ7-7" source="d4iBQFHmA6hFhwpncuJ7-20" target="d4iBQFHmA6hFhwpncuJ7-27" edge="1">
          <mxGeometry relative="1" as="geometry" />
        </mxCell>
        <mxCell id="d4iBQFHmA6hFhwpncuJ7-20" value="espaço preenchido" style="rhombus;whiteSpace=wrap;html=1;" parent="d4iBQFHmA6hFhwpncuJ7-7" vertex="1">
          <mxGeometry x="297" y="380" width="80" height="80" as="geometry" />
        </mxCell>
        <mxCell id="d4iBQFHmA6hFhwpncuJ7-25" value="não" style="text;html=1;align=center;verticalAlign=middle;whiteSpace=wrap;rounded=0;" parent="d4iBQFHmA6hFhwpncuJ7-7" vertex="1">
          <mxGeometry x="407" y="360" width="60" height="30" as="geometry" />
        </mxCell>
        <mxCell id="d4iBQFHmA6hFhwpncuJ7-26" value="sim" style="text;html=1;align=center;verticalAlign=middle;whiteSpace=wrap;rounded=0;" parent="d4iBQFHmA6hFhwpncuJ7-7" vertex="1">
          <mxGeometry x="367" y="440" width="60" height="30" as="geometry" />
        </mxCell>
        <mxCell id="d4iBQFHmA6hFhwpncuJ7-30" value="" style="edgeStyle=orthogonalEdgeStyle;rounded=0;orthogonalLoop=1;jettySize=auto;html=1;entryX=0;entryY=0.5;entryDx=0;entryDy=0;" parent="d4iBQFHmA6hFhwpncuJ7-7" source="d4iBQFHmA6hFhwpncuJ7-27" target="d4iBQFHmA6hFhwpncuJ7-31" edge="1">
          <mxGeometry relative="1" as="geometry">
            <mxPoint x="497" y="520" as="targetPoint" />
          </mxGeometry>
        </mxCell>
        <mxCell id="d4iBQFHmA6hFhwpncuJ7-27" value="Excluir&amp;nbsp;" style="whiteSpace=wrap;html=1;" parent="d4iBQFHmA6hFhwpncuJ7-7" vertex="1">
          <mxGeometry x="277" y="490" width="120" height="60" as="geometry" />
        </mxCell>
        <mxCell id="d4iBQFHmA6hFhwpncuJ7-31" value="fim" style="ellipse;whiteSpace=wrap;html=1;" parent="d4iBQFHmA6hFhwpncuJ7-7" vertex="1">
          <mxGeometry x="453" y="480" width="120" height="80" as="geometry" />
        </mxCell>
        <mxCell id="d4iBQFHmA6hFhwpncuJ7-8" value="&lt;font style=&quot;font-size: 25px;&quot;&gt;Cadastrar Cliente&lt;/font&gt;" style="swimlane;horizontal=0;whiteSpace=wrap;html=1;startSize=60;fillColor=#d5e8d4;strokeColor=#82b366;" parent="1" vertex="1">
          <mxGeometry x="-730" y="1040" width="680" height="570" as="geometry" />
        </mxCell>
        <mxCell id="d4iBQFHmA6hFhwpncuJ7-94" style="edgeStyle=orthogonalEdgeStyle;rounded=0;orthogonalLoop=1;jettySize=auto;html=1;entryX=0.5;entryY=0;entryDx=0;entryDy=0;" parent="d4iBQFHmA6hFhwpncuJ7-8" source="d4iBQFHmA6hFhwpncuJ7-81" target="d4iBQFHmA6hFhwpncuJ7-82" edge="1">
          <mxGeometry relative="1" as="geometry" />
        </mxCell>
        <mxCell id="d4iBQFHmA6hFhwpncuJ7-81" value="inicio" style="ellipse;whiteSpace=wrap;html=1;" parent="d4iBQFHmA6hFhwpncuJ7-8" vertex="1">
          <mxGeometry x="189" y="15" width="120" height="80" as="geometry" />
        </mxCell>
        <mxCell id="d4iBQFHmA6hFhwpncuJ7-93" style="edgeStyle=orthogonalEdgeStyle;rounded=0;orthogonalLoop=1;jettySize=auto;html=1;entryX=0.5;entryY=0;entryDx=0;entryDy=0;" parent="d4iBQFHmA6hFhwpncuJ7-8" source="d4iBQFHmA6hFhwpncuJ7-82" target="d4iBQFHmA6hFhwpncuJ7-83" edge="1">
          <mxGeometry relative="1" as="geometry" />
        </mxCell>
        <mxCell id="d4iBQFHmA6hFhwpncuJ7-82" value="clicar na tela de &quot;clientes&quot;" style="whiteSpace=wrap;html=1;" parent="d4iBQFHmA6hFhwpncuJ7-8" vertex="1">
          <mxGeometry x="189" y="119" width="120" height="60" as="geometry" />
        </mxCell>
        <mxCell id="d4iBQFHmA6hFhwpncuJ7-92" style="edgeStyle=orthogonalEdgeStyle;rounded=0;orthogonalLoop=1;jettySize=auto;html=1;entryX=0.5;entryY=0;entryDx=0;entryDy=0;" parent="d4iBQFHmA6hFhwpncuJ7-8" source="d4iBQFHmA6hFhwpncuJ7-83" target="d4iBQFHmA6hFhwpncuJ7-84" edge="1">
          <mxGeometry relative="1" as="geometry" />
        </mxCell>
        <mxCell id="d4iBQFHmA6hFhwpncuJ7-83" value="clicar em cadastrar cliente" style="whiteSpace=wrap;html=1;" parent="d4iBQFHmA6hFhwpncuJ7-8" vertex="1">
          <mxGeometry x="189" y="205" width="120" height="60" as="geometry" />
        </mxCell>
        <mxCell id="d4iBQFHmA6hFhwpncuJ7-95" style="edgeStyle=orthogonalEdgeStyle;rounded=0;orthogonalLoop=1;jettySize=auto;html=1;" parent="d4iBQFHmA6hFhwpncuJ7-8" source="d4iBQFHmA6hFhwpncuJ7-84" edge="1">
          <mxGeometry relative="1" as="geometry">
            <mxPoint x="249" y="370" as="targetPoint" />
          </mxGeometry>
        </mxCell>
        <mxCell id="d4iBQFHmA6hFhwpncuJ7-84" value="preencher informações necessárias" style="whiteSpace=wrap;html=1;" parent="d4iBQFHmA6hFhwpncuJ7-8" vertex="1">
          <mxGeometry x="189" y="295" width="120" height="60" as="geometry" />
        </mxCell>
        <mxCell id="d4iBQFHmA6hFhwpncuJ7-90" style="edgeStyle=orthogonalEdgeStyle;rounded=0;orthogonalLoop=1;jettySize=auto;html=1;entryX=0.5;entryY=0;entryDx=0;entryDy=0;" parent="d4iBQFHmA6hFhwpncuJ7-8" source="d4iBQFHmA6hFhwpncuJ7-85" target="d4iBQFHmA6hFhwpncuJ7-87" edge="1">
          <mxGeometry relative="1" as="geometry" />
        </mxCell>
        <mxCell id="d4iBQFHmA6hFhwpncuJ7-91" style="edgeStyle=orthogonalEdgeStyle;rounded=0;orthogonalLoop=1;jettySize=auto;html=1;entryX=1;entryY=0.5;entryDx=0;entryDy=0;exitX=1;exitY=0.5;exitDx=0;exitDy=0;" parent="d4iBQFHmA6hFhwpncuJ7-8" source="d4iBQFHmA6hFhwpncuJ7-85" target="d4iBQFHmA6hFhwpncuJ7-84" edge="1">
          <mxGeometry relative="1" as="geometry">
            <Array as="points">
              <mxPoint x="360" y="415" />
              <mxPoint x="360" y="325" />
            </Array>
          </mxGeometry>
        </mxCell>
        <mxCell id="d4iBQFHmA6hFhwpncuJ7-85" value="&lt;font style=&quot;font-size: 8px;&quot;&gt;&lt;b&gt;as informações são validas?&lt;/b&gt;&lt;/font&gt;" style="rhombus;whiteSpace=wrap;html=1;" parent="d4iBQFHmA6hFhwpncuJ7-8" vertex="1">
          <mxGeometry x="209" y="375" width="80" height="80" as="geometry" />
        </mxCell>
        <mxCell id="d4iBQFHmA6hFhwpncuJ7-86" value="sim" style="text;html=1;align=center;verticalAlign=middle;whiteSpace=wrap;rounded=0;" parent="d4iBQFHmA6hFhwpncuJ7-8" vertex="1">
          <mxGeometry x="189" y="445" width="60" height="30" as="geometry" />
        </mxCell>
        <mxCell id="d4iBQFHmA6hFhwpncuJ7-89" style="edgeStyle=orthogonalEdgeStyle;rounded=0;orthogonalLoop=1;jettySize=auto;html=1;entryX=0;entryY=0.5;entryDx=0;entryDy=0;" parent="d4iBQFHmA6hFhwpncuJ7-8" source="d4iBQFHmA6hFhwpncuJ7-87" target="d4iBQFHmA6hFhwpncuJ7-88" edge="1">
          <mxGeometry relative="1" as="geometry" />
        </mxCell>
        <mxCell id="d4iBQFHmA6hFhwpncuJ7-87" value="confirmar cadastro" style="whiteSpace=wrap;html=1;" parent="d4iBQFHmA6hFhwpncuJ7-8" vertex="1">
          <mxGeometry x="189" y="485" width="120" height="60" as="geometry" />
        </mxCell>
        <mxCell id="d4iBQFHmA6hFhwpncuJ7-88" value="fim" style="ellipse;whiteSpace=wrap;html=1;" parent="d4iBQFHmA6hFhwpncuJ7-8" vertex="1">
          <mxGeometry x="365" y="475" width="120" height="80" as="geometry" />
        </mxCell>
        <mxCell id="d4iBQFHmA6hFhwpncuJ7-96" value="não" style="text;html=1;align=center;verticalAlign=middle;whiteSpace=wrap;rounded=0;" parent="d4iBQFHmA6hFhwpncuJ7-8" vertex="1">
          <mxGeometry x="286" y="375" width="60" height="30" as="geometry" />
        </mxCell>
        <mxCell id="d4iBQFHmA6hFhwpncuJ7-9" value="&lt;font style=&quot;font-size: 25px;&quot;&gt;Atualizar Cliente&lt;/font&gt;" style="swimlane;horizontal=0;whiteSpace=wrap;html=1;startSize=60;fillColor=#dae8fc;strokeColor=#6c8ebf;" parent="1" vertex="1">
          <mxGeometry x="-730" y="1660" width="680" height="570" as="geometry" />
        </mxCell>
        <mxCell id="d4iBQFHmA6hFhwpncuJ7-215" style="edgeStyle=orthogonalEdgeStyle;rounded=0;orthogonalLoop=1;jettySize=auto;html=1;entryX=0.5;entryY=0;entryDx=0;entryDy=0;" parent="d4iBQFHmA6hFhwpncuJ7-9" source="d4iBQFHmA6hFhwpncuJ7-216" target="d4iBQFHmA6hFhwpncuJ7-218" edge="1">
          <mxGeometry relative="1" as="geometry" />
        </mxCell>
        <mxCell id="d4iBQFHmA6hFhwpncuJ7-216" value="inicio" style="ellipse;whiteSpace=wrap;html=1;" parent="d4iBQFHmA6hFhwpncuJ7-9" vertex="1">
          <mxGeometry x="209" y="15" width="120" height="80" as="geometry" />
        </mxCell>
        <mxCell id="d4iBQFHmA6hFhwpncuJ7-217" style="edgeStyle=orthogonalEdgeStyle;rounded=0;orthogonalLoop=1;jettySize=auto;html=1;entryX=0.5;entryY=0;entryDx=0;entryDy=0;" parent="d4iBQFHmA6hFhwpncuJ7-9" source="d4iBQFHmA6hFhwpncuJ7-218" target="d4iBQFHmA6hFhwpncuJ7-220" edge="1">
          <mxGeometry relative="1" as="geometry" />
        </mxCell>
        <mxCell id="d4iBQFHmA6hFhwpncuJ7-218" value="clicar em &quot;clientes&quot;" style="whiteSpace=wrap;html=1;" parent="d4iBQFHmA6hFhwpncuJ7-9" vertex="1">
          <mxGeometry x="209" y="119" width="120" height="60" as="geometry" />
        </mxCell>
        <mxCell id="d4iBQFHmA6hFhwpncuJ7-219" style="edgeStyle=orthogonalEdgeStyle;rounded=0;orthogonalLoop=1;jettySize=auto;html=1;entryX=0.5;entryY=0;entryDx=0;entryDy=0;" parent="d4iBQFHmA6hFhwpncuJ7-9" source="d4iBQFHmA6hFhwpncuJ7-220" target="d4iBQFHmA6hFhwpncuJ7-222" edge="1">
          <mxGeometry relative="1" as="geometry" />
        </mxCell>
        <mxCell id="d4iBQFHmA6hFhwpncuJ7-220" value="escolher cliente" style="whiteSpace=wrap;html=1;" parent="d4iBQFHmA6hFhwpncuJ7-9" vertex="1">
          <mxGeometry x="209" y="205" width="120" height="60" as="geometry" />
        </mxCell>
        <mxCell id="d4iBQFHmA6hFhwpncuJ7-221" value="" style="edgeStyle=orthogonalEdgeStyle;rounded=0;orthogonalLoop=1;jettySize=auto;html=1;" parent="d4iBQFHmA6hFhwpncuJ7-9" source="d4iBQFHmA6hFhwpncuJ7-222" target="d4iBQFHmA6hFhwpncuJ7-230" edge="1">
          <mxGeometry relative="1" as="geometry" />
        </mxCell>
        <mxCell id="d4iBQFHmA6hFhwpncuJ7-222" value="editar informações" style="whiteSpace=wrap;html=1;" parent="d4iBQFHmA6hFhwpncuJ7-9" vertex="1">
          <mxGeometry x="209" y="295" width="120" height="60" as="geometry" />
        </mxCell>
        <mxCell id="d4iBQFHmA6hFhwpncuJ7-223" value="sim" style="text;html=1;align=center;verticalAlign=middle;whiteSpace=wrap;rounded=0;" parent="d4iBQFHmA6hFhwpncuJ7-9" vertex="1">
          <mxGeometry x="209" y="455" width="60" height="30" as="geometry" />
        </mxCell>
        <mxCell id="d4iBQFHmA6hFhwpncuJ7-224" style="edgeStyle=orthogonalEdgeStyle;rounded=0;orthogonalLoop=1;jettySize=auto;html=1;entryX=0;entryY=0.5;entryDx=0;entryDy=0;" parent="d4iBQFHmA6hFhwpncuJ7-9" source="d4iBQFHmA6hFhwpncuJ7-225" target="d4iBQFHmA6hFhwpncuJ7-226" edge="1">
          <mxGeometry relative="1" as="geometry" />
        </mxCell>
        <mxCell id="d4iBQFHmA6hFhwpncuJ7-225" value="atualizar&amp;nbsp; cliente&amp;nbsp;" style="whiteSpace=wrap;html=1;" parent="d4iBQFHmA6hFhwpncuJ7-9" vertex="1">
          <mxGeometry x="209" y="485" width="120" height="60" as="geometry" />
        </mxCell>
        <mxCell id="d4iBQFHmA6hFhwpncuJ7-226" value="fim" style="ellipse;whiteSpace=wrap;html=1;" parent="d4iBQFHmA6hFhwpncuJ7-9" vertex="1">
          <mxGeometry x="385" y="475" width="120" height="80" as="geometry" />
        </mxCell>
        <mxCell id="d4iBQFHmA6hFhwpncuJ7-227" value="não" style="text;html=1;align=center;verticalAlign=middle;whiteSpace=wrap;rounded=0;" parent="d4iBQFHmA6hFhwpncuJ7-9" vertex="1">
          <mxGeometry x="309" y="380" width="60" height="30" as="geometry" />
        </mxCell>
        <mxCell id="d4iBQFHmA6hFhwpncuJ7-228" style="edgeStyle=orthogonalEdgeStyle;rounded=0;orthogonalLoop=1;jettySize=auto;html=1;entryX=0.5;entryY=0;entryDx=0;entryDy=0;" parent="d4iBQFHmA6hFhwpncuJ7-9" source="d4iBQFHmA6hFhwpncuJ7-230" target="d4iBQFHmA6hFhwpncuJ7-225" edge="1">
          <mxGeometry relative="1" as="geometry" />
        </mxCell>
        <mxCell id="d4iBQFHmA6hFhwpncuJ7-229" style="edgeStyle=orthogonalEdgeStyle;rounded=0;orthogonalLoop=1;jettySize=auto;html=1;entryX=1;entryY=0.5;entryDx=0;entryDy=0;exitX=1;exitY=0.5;exitDx=0;exitDy=0;" parent="d4iBQFHmA6hFhwpncuJ7-9" source="d4iBQFHmA6hFhwpncuJ7-230" target="d4iBQFHmA6hFhwpncuJ7-220" edge="1">
          <mxGeometry relative="1" as="geometry">
            <mxPoint x="359" y="414.9499999999998" as="sourcePoint" />
            <mxPoint x="379" y="229.95000000000005" as="targetPoint" />
            <Array as="points">
              <mxPoint x="379" y="420" />
              <mxPoint x="379" y="235" />
            </Array>
          </mxGeometry>
        </mxCell>
        <mxCell id="d4iBQFHmA6hFhwpncuJ7-230" value="&lt;font style=&quot;font-size: 9px;&quot;&gt;&lt;b&gt;as informações editadas são válidas?&lt;/b&gt;&lt;/font&gt;" style="rhombus;whiteSpace=wrap;html=1;" parent="d4iBQFHmA6hFhwpncuJ7-9" vertex="1">
          <mxGeometry x="229" y="380" width="80" height="80" as="geometry" />
        </mxCell>
      </root>
    </mxGraphModel>
  </diagram>
</mxfile>
